<svg xmlns="http://www.w3.org/2000/svg" viewBox="-0.45 4.5673 5.62 5.62">
<!-- the brand quote mark, lifted verbatim from the "Left Quote" group in
     logo.svg so the favicon and the wordmark can never drift apart.
     Transparent background; the viewBox squares the mark with even padding. -->
<path d="M2.05797 7.21801V5.1773H0V7.94715C0.00862883 8.05717 0.0755012 8.73021 0.673047 9.20048C1.27491 9.67291 1.95011 9.57369 2.05797 9.55643V8.76042C1.98247 8.7561 1.50789 8.71943 1.18646 8.30956C0.804638 7.82419 0.979372 7.24606 0.994472 7.1986C1.28138 7.20508 1.77107 7.21154 2.05797 7.21801Z" fill="#3979FF"/>
<path d="M4.71996 7.21801V5.1773H2.66199V7.94715C2.67062 8.05717 2.73749 8.73021 3.33504 9.20048C3.9369 9.67291 4.6121 9.57369 4.71996 9.55643V8.76042C4.64446 8.7561 4.16988 8.71943 3.84845 8.30956C3.46663 7.82419 3.64136 7.24606 3.65646 7.1986C3.94337 7.20508 4.43306 7.21154 4.71996 7.21801Z" fill="#3979FF"/>
</svg>
