<svg width="49" height="44" viewBox="0 0 49 44" fill="none" xmlns="http://www.w3.org/2000/svg">
<g id="Daily Mattr">

<g id="Section">

<g id="Container">
<g id="Frame 193">
<g id="Frame 2085663947">
<path id="Vector" d="M27.0215 2.86792C27.0215 1.28399 25.7375 -3.45707e-05 24.1536 -3.45707e-05C22.5696 -3.45707e-05 21.2856 1.28399 21.2856 2.86792H24.1536H27.0215ZM21.2856 40.8779C21.2856 42.4618 22.5696 43.7459 24.1536 43.7459C25.7375 43.7459 27.0215 42.4618 27.0215 40.8779H24.1536H21.2856ZM37.6643 7.61917C37.6643 6.03524 36.3803 4.75121 34.7964 4.75121C33.2124 4.75121 31.9284 6.03524 31.9284 7.61917H34.7964H37.6643ZM31.9284 36.1267C31.9284 37.7106 33.2124 38.9946 34.7964 38.9946C36.3803 38.9946 37.6643 37.7106 37.6643 36.1267H34.7964H31.9284ZM48.3071 17.1217C48.3071 15.5377 47.0231 14.2537 45.4392 14.2537C43.8552 14.2537 42.5712 15.5377 42.5712 17.1217H45.4392H48.3071ZM42.5712 26.6242C42.5712 28.2081 43.8552 29.4921 45.4392 29.4921C47.0231 29.4921 48.3071 28.2081 48.3071 26.6242H45.4392H42.5712ZM16.3787 7.61917C16.3787 6.03524 15.0947 4.75121 13.5108 4.75121C11.9268 4.75121 10.6428 6.03524 10.6428 7.61917L13.5108 7.61917H16.3787ZM10.6428 36.1267C10.6428 37.7106 11.9268 38.9946 13.5108 38.9946C15.0947 38.9946 16.3787 37.7106 16.3787 36.1267H13.5108H10.6428ZM5.73591 17.1217C5.73591 15.5377 4.45189 14.2537 2.86796 14.2537C1.28403 14.2537 3.33786e-06 15.5377 3.57628e-06 17.1217H2.86796H5.73591ZM4.76837e-06 26.6242C5.00679e-06 28.2081 1.28403 29.4921 2.86796 29.4921C4.45189 29.4921 5.73591 28.2081 5.73591 26.6242H2.86796L4.76837e-06 26.6242ZM24.1536 2.86792H21.2856V40.8779H24.1536H27.0215V2.86792H24.1536ZM34.7964 7.61917H31.9284V36.1267H34.7964H37.6643V7.61917H34.7964ZM45.4392 17.1217H42.5712V26.6242H45.4392H48.3071V17.1217H45.4392ZM13.5108 7.61917L10.6428 7.61917L10.6428 36.1267H13.5108H16.3787L16.3787 7.61917H13.5108ZM2.86796 17.1217H3.57628e-06L4.76837e-06 26.6242L2.86796 26.6242H5.73591L5.73591 17.1217H2.86796Z" fill="#3979FF"/>
</g>
</g>
</g>
</g>
</g>
</svg>

