<svg width="45" height="45" viewBox="0 0 45 45" fill="none" xmlns="http://www.w3.org/2000/svg">

<g id="Daily Mattr">

<g id="Section">

<g id="Container">
<g id="Frame 192">
<g id="Frame 2085663949">
<g id="Group 1">
<path id="Vector" d="M5.242 43.42H39.178C40.303 43.42 41.382 42.9731 42.1775 42.1775C42.9731 41.382 43.42 40.303 43.42 39.178V5.242C43.42 4.11695 42.9731 3.03798 42.1775 2.24245C41.382 1.44692 40.303 1 39.178 1H13.726C12.601 1 11.522 1.44692 10.7265 2.24245C9.93092 3.03798 9.484 4.11695 9.484 5.242V39.178C9.484 40.303 9.03708 41.382 8.24155 42.1775C7.44602 42.9731 6.36705 43.42 5.242 43.42ZM5.242 43.42C4.11695 43.42 3.03798 42.9731 2.24245 42.1775C1.44692 41.382 1 40.303 1 39.178V20.089C1 18.964 1.44692 17.885 2.24245 17.0895C3.03798 16.2939 4.11695 15.847 5.242 15.847H9.484" stroke="#D1D1D6" stroke-width="2" stroke-linecap="round"/>
<path id="Vector 2" d="M9.49945 3.20996L11.4995 1.20996L38.4995 0.709961L41.9995 1.70996L43.4995 4.70996V26.21V39.71L41.9995 42.71L35.9995 43.21H7.99945L9.49945 38.21L8.99945 16.21L9.49945 3.20996Z" fill="#D1D1D6"/>
<path id="Vector_2" d="M28.5732 34.9359H17.9682M34.9362 26.4519H17.9682" stroke="#0D0F11" stroke-width="3" stroke-linecap="round"/>
<path id="Vector_3" d="M34.8744 8.56494H19.1245C17.6747 8.56494 16.4995 9.68423 16.4995 11.0649V16.0649C16.4995 17.4457 17.6747 18.5649 19.1245 18.5649H34.8744C36.3242 18.5649 37.4995 17.4457 37.4995 16.0649V11.0649C37.4995 9.68423 36.3242 8.56494 34.8744 8.56494Z" fill="#0D0F11"/>
</g>
</g>
</g>
</g>
</g>
</g>
</svg>

