<svg width="56" height="56" viewBox="0 0 56 56" fill="none" xmlns="http://www.w3.org/2000/svg">

<g id="Daily Mattr">

<g id="Section">

<g id="Container">
<g id="Frame 191">
<g id="Frame 2085663948">
<g id="Qix">
<g id="Group 1321319519">
<path id="Subtract" d="M47.1475 19.7131C47.2142 20.5028 47.248 21.3398 47.248 22.2258V33.7747C47.248 43.3991 43.3979 47.2493 33.7734 47.2493H22.2246C12.6002 47.2493 8.75 43.3991 8.75 33.7747V22.2258C8.75 21.3402 8.78291 20.5035 8.84961 19.7141C9.09654 19.9117 9.40906 20.0305 9.75 20.0305H46.2461C46.5875 20.0305 46.9004 19.9112 47.1475 19.7131ZM28.3223 27.7112C25.7622 26.2291 23.6641 27.4422 23.6641 30.4065V35.0256C23.6641 37.9899 25.7622 39.2031 28.3223 37.7209L30.3242 36.5657L32.3262 35.4114C34.8862 33.9293 34.886 31.5039 32.3262 30.0217L28.3223 27.7112ZM36.1357 8.84106C42.3524 9.32904 45.6665 11.8924 46.7959 17.2522C46.6265 17.1824 46.4407 17.1438 46.2461 17.1438H36.1426V8.96313C36.1426 8.92209 36.1391 8.88124 36.1357 8.84106ZM19.8574 8.96313V17.1438H9.75C9.55611 17.1438 9.37103 17.1819 9.20215 17.2512C10.3318 11.8918 13.6463 9.32783 19.8633 8.84009C19.8599 8.88055 19.8574 8.92179 19.8574 8.96313ZM33.2734 8.75122C33.2633 8.82037 33.2559 8.89116 33.2559 8.96313V17.1438H22.7441V8.96313C22.7441 8.89116 22.7367 8.82037 22.7266 8.75122H33.2734Z" fill="#3979FF"/>
</g>
</g>
</g>
</g>
</g>
</g>
</g>
</svg>

