<svg width="156" height="32" viewBox="0 0 156 32" fill="none" xmlns="http://www.w3.org/2000/svg">
<g id="Daily Mattr">
<g id="Frame 15">
<g id="Primary logo">
<g id="Left Quote">
<g id="Left Quote_2">
<path id="Vector" d="M2.05797 7.21801V5.1773H0V7.94715C0.00862883 8.05717 0.0755012 8.73021 0.673047 9.20048C1.27491 9.67291 1.95011 9.57369 2.05797 9.55643V8.76042C1.98247 8.7561 1.50789 8.71943 1.18646 8.30956C0.804638 7.82419 0.979372 7.24606 0.994472 7.1986C1.28138 7.20508 1.77107 7.21154 2.05797 7.21801Z" fill="#3979FF"/>
<path id="Vector_2" d="M4.71996 7.21801V5.1773H2.66199V7.94715C2.67062 8.05717 2.73749 8.73021 3.33504 9.20048C3.9369 9.67291 4.6121 9.57369 4.71996 9.55643V8.76042C4.64446 8.7561 4.16988 8.71943 3.84845 8.30956C3.46663 7.82419 3.64136 7.24606 3.65646 7.1986C3.94337 7.20508 4.43306 7.21154 4.71996 7.21801Z" fill="#3979FF"/>
</g>
</g>
<g id="Frame 2085663951">
<g id="TEXT">
<path id="Vector_3" d="M23.973 22.243C23.973 22.4716 23.8889 22.5946 23.7185 22.6162C23.1123 22.6895 22.4112 22.8383 21.6109 23.0627C20.8105 23.2849 20.1871 23.5092 19.7406 23.7314C19.5054 23.8479 19.335 23.9062 19.2293 23.9062C19.0589 23.9062 18.9726 23.822 18.9726 23.6516L19.0999 21.9323C17.9738 23.1641 16.5393 23.781 14.7984 23.781C12.9605 23.781 11.3986 23.0756 10.1065 21.6627C8.81647 20.2497 8.17147 18.5563 8.17147 16.5825C8.17147 14.3411 8.8855 12.5291 10.3136 11.142C11.7416 9.75489 13.5343 9.06242 15.6893 9.06242C16.9211 9.06242 18.0579 9.44425 19.0977 10.2101V4.91628C19.0977 4.05771 18.992 3.49683 18.7785 3.2315C18.5649 2.96616 18.0774 2.79142 17.3137 2.70729C17.1433 2.68572 17.0592 2.54982 17.0592 2.30174C17.0592 2.02131 17.1433 1.87893 17.3137 1.87893C18.3147 1.64595 19.184 1.36335 19.9175 1.03546C20.6531 0.705404 21.1471 0.414182 21.4038 0.159631C21.5095 0.0539281 21.6217 0 21.7403 0C22.038 0 22.1868 0.0841295 22.1868 0.254549C22.0164 2.56707 21.9323 4.41364 21.9323 5.79425V19.8183C21.9323 20.5496 22.038 21.0414 22.2516 21.2916C22.463 21.5419 22.9526 21.7188 23.7163 21.8245C23.8867 21.8245 23.9708 21.9647 23.9708 22.2473L23.973 22.243ZM19.0977 20.5431V12.3737C19.0977 11.8215 18.7763 11.3016 18.1334 10.8119C17.4906 10.3244 16.7917 10.0785 16.0388 10.0785C12.9367 10.0785 11.3879 12.2594 11.3879 16.617C11.3879 18.3406 11.7589 19.7708 12.5031 20.9076C13.2474 22.0445 14.2224 22.614 15.4348 22.614C16.1251 22.614 16.7507 22.4565 17.3137 22.1437C17.8767 21.8309 18.47 21.2959 19.0977 20.5409V20.5431Z" fill="#3979FF"/>
<path id="Vector_4" d="M35.5227 23.6538C34.9316 23.6538 34.416 23.5071 33.9781 23.2159C33.5402 22.9246 33.2425 22.5277 33.0829 22.0294C31.946 23.1986 30.4597 23.781 28.6239 23.781C27.6683 23.781 26.8874 23.4855 26.2834 22.8966C25.6772 22.3077 25.3752 21.5721 25.3752 20.6898C25.3752 18.5131 27.9552 16.7507 33.1174 15.4003L33.2123 12.9152V12.8354C33.2123 12.0717 33.0246 11.4634 32.6471 11.0104C32.2696 10.5595 31.7691 10.333 31.1414 10.333C30.5137 10.333 29.983 10.484 29.5494 10.786C29.1136 11.088 28.8914 11.4677 28.8807 11.925C28.8699 12.6046 28.693 13.1352 28.3478 13.5171C28.0027 13.8989 27.5432 14.0909 26.9694 14.0909C26.6285 14.0909 26.3524 13.9895 26.141 13.7889C25.9274 13.5861 25.8217 13.3164 25.8217 12.9756C25.8217 12.158 26.566 11.2994 28.0523 10.402C29.5386 9.50465 30.9192 9.05595 32.1941 9.05595C33.3418 9.05595 34.2694 9.39679 34.9812 10.0763C35.6931 10.7558 36.049 11.6683 36.049 12.816V13.008L35.8096 20.2087V20.3209C35.8096 21.4362 36.1698 21.9927 36.8925 21.9927C37.2441 21.9927 37.6518 21.7813 38.12 21.3563L38.2321 21.324C38.3163 21.324 38.3961 21.3801 38.4716 21.4922C38.5449 21.6044 38.5838 21.7231 38.5838 21.8503C38.5838 22.1588 38.2623 22.5363 37.6195 22.9807C36.9766 23.4273 36.2799 23.6494 35.527 23.6494L35.5227 23.6538ZM33.0829 16.4681C29.9916 17.1714 28.4471 18.3319 28.4471 19.9498C28.4471 21.462 29.0295 22.2192 30.1922 22.2192C30.7531 22.2192 31.3053 22.079 31.8511 21.7964C32.3969 21.5138 32.7636 21.1665 32.9535 20.7502L33.0807 16.4703L33.0829 16.4681Z" fill="#3979FF"/>
<path id="Vector_5" d="M46.8459 22.8556C46.8459 23.1533 46.7617 23.3021 46.5913 23.3021C46.1556 23.3021 45.599 23.2698 44.9195 23.2072C44.158 23.1425 43.5173 23.1123 42.9996 23.1123C42.4818 23.1123 41.8368 23.1447 41.0969 23.2072C40.4282 23.2719 39.8759 23.3021 39.4402 23.3021C39.2698 23.3021 39.1856 23.1533 39.1856 22.8556C39.1856 22.5903 39.2698 22.4479 39.4402 22.4263C40.3419 22.3098 40.9243 22.0919 41.1854 21.7748C41.4464 21.4556 41.5758 20.7782 41.5758 19.7384V13.8536C41.5758 13.0058 41.4658 12.4492 41.2501 12.1839C41.0322 11.9186 40.5576 11.7438 39.8242 11.6597C39.6537 11.6597 39.5696 11.5195 39.5696 11.2369C39.5696 10.978 39.6537 10.8464 39.8242 10.8464C40.9351 10.5595 41.8455 10.2554 42.5552 9.92962C43.2649 9.60604 43.7093 9.33855 43.8883 9.12499C43.994 8.99771 44.1105 8.93299 44.2378 8.93299C44.5333 8.93299 44.6822 9.01712 44.6822 9.18754C44.5118 11.5669 44.4276 13.4135 44.4276 14.7316V19.732C44.4276 20.7739 44.5571 21.4513 44.8181 21.7705C45.0791 22.0898 45.6702 22.3077 46.5935 22.4242C46.7639 22.4457 46.848 22.5881 46.848 22.8534L46.8459 22.8556Z" fill="#3979FF"/>
<path id="Vector_6" d="M55.4143 22.8254C55.4143 23.1231 55.3302 23.2719 55.1597 23.2719C54.724 23.2719 54.1674 23.2461 53.4879 23.1921C52.7243 23.1382 52.0814 23.1123 51.5594 23.1123C51.0373 23.1123 50.4182 23.1382 49.6632 23.1921C48.9837 23.2461 48.4249 23.2719 47.9913 23.2719C47.8209 23.2719 47.7368 23.1231 47.7368 22.8254C47.7368 22.5601 47.8209 22.4177 47.9913 22.3961C48.8931 22.2904 49.4798 22.0747 49.7516 21.7511C50.0234 21.4275 50.1572 20.7459 50.1572 19.7061V4.92059C50.1572 4.06202 50.0515 3.49899 49.8379 3.23365C49.6244 2.96831 49.1368 2.79358 48.3732 2.70729C48.2028 2.68572 48.1186 2.54982 48.1186 2.30174C48.1186 2.05366 48.2028 1.91128 48.3732 1.91128C49.4884 1.62437 50.4009 1.32021 51.1128 0.994469C51.8247 0.670888 52.2712 0.396925 52.4503 0.174733C52.556 0.058244 52.6725 0 52.7998 0C53.0975 0 53.2463 0.0841295 53.2463 0.254549C53.0759 2.63395 52.9918 4.48052 52.9918 5.79857V19.7039C52.9918 20.7459 53.1255 21.4275 53.3908 21.7511C53.6562 22.0747 54.2451 22.2904 55.1597 22.3961C55.3302 22.4177 55.4143 22.5601 55.4143 22.8254Z" fill="#3979FF"/>
<path id="Vector_7" d="M71.5675 10.0094C71.5675 10.2812 71.4833 10.4258 71.3129 10.4474C70.5902 10.5229 70.0358 10.7343 69.6475 11.0794C69.2592 11.4267 68.8321 12.1127 68.3662 13.1395L60.8483 29.3876C60.0091 31.1285 59.0319 32 57.9167 32C57.3752 32 56.9416 31.8533 56.618 31.5621C56.2944 31.2709 56.1326 30.8955 56.1326 30.4382C56.1326 29.9809 56.2772 29.571 56.5684 29.2668C56.8596 28.9648 57.2479 28.8138 57.7354 28.8138C57.9641 28.8138 58.2273 28.8936 58.5228 29.0533C58.7127 29.1482 58.8507 29.1956 58.9392 29.1956C59.2929 29.1956 59.7071 28.6002 60.1839 27.4116L62.175 23.1101L58.4603 13.1395C58.0677 12.1666 57.6707 11.4979 57.2738 11.129C56.8747 10.7601 56.3354 10.5336 55.6581 10.4474C55.4876 10.4258 55.4035 10.2812 55.4035 10.0094C55.4035 9.71821 55.4833 9.57153 55.6451 9.57153C56.0571 9.57153 56.5598 9.60389 57.153 9.66645C57.8174 9.73116 58.3999 9.76135 58.9025 9.76135C59.4051 9.76135 60.0091 9.72901 60.7426 9.66645C61.4156 9.60173 61.9722 9.57153 62.4058 9.57153C62.5762 9.57153 62.6603 9.71821 62.6603 10.0094C62.6603 10.2812 62.5762 10.4258 62.4058 10.4474C61.297 10.5854 60.7426 10.9068 60.7426 11.4095C60.7426 11.7611 60.8893 12.3392 61.1805 13.1395L63.7476 19.7125L66.7892 13.1395C67.0524 12.5334 67.184 12.0351 67.184 11.6424C67.184 10.9737 66.6706 10.5746 65.6438 10.4474C65.4733 10.4258 65.3892 10.2834 65.3892 10.0181C65.3892 9.72037 65.4733 9.57153 65.6438 9.57153C66.0903 9.57153 66.5865 9.60389 67.1366 9.66645C67.6737 9.73116 68.1612 9.76135 68.5991 9.76135C68.8192 9.76135 69.173 9.73547 69.667 9.68154C70.3465 9.60819 70.8944 9.56937 71.3107 9.56937C71.4855 9.56937 71.5739 9.71605 71.5739 10.0073L71.5675 10.0094Z" fill="#3979FF"/>
<path id="Vector_8" d="M96.7809 22.8556C96.7809 23.1533 96.6968 23.3021 96.5263 23.3021C96.1014 23.3021 95.5815 23.2698 94.9645 23.2072C94.2871 23.1425 93.6831 23.1123 93.1546 23.1123C92.6261 23.1123 92.0393 23.1447 91.362 23.2072C90.7493 23.2719 90.2251 23.3021 89.7915 23.3021C89.6211 23.3021 89.537 23.1533 89.537 22.8556C89.537 22.5903 89.6211 22.4479 89.7915 22.4263C90.512 22.3422 90.9823 22.1351 91.2045 21.805C91.4267 21.4771 91.5389 20.7847 91.5389 19.7341V14.4144C91.5389 13.215 91.3102 12.3414 90.855 11.7935C90.3999 11.2477 89.6837 10.9737 88.7108 10.9737C87.4294 10.9737 86.3702 11.4095 85.5332 12.2788V19.7341C85.5332 20.7847 85.6497 21.475 85.8827 21.805C86.1157 22.1351 86.5924 22.3422 87.3129 22.4263C87.4833 22.4479 87.5675 22.5903 87.5675 22.8556C87.5675 23.1533 87.4833 23.3021 87.3129 23.3021C86.8879 23.3021 86.3918 23.2698 85.8287 23.2072C85.2118 23.1425 84.6466 23.1123 84.1353 23.1123C83.6241 23.1123 83.0222 23.1447 82.3945 23.2072C81.8293 23.2719 81.3353 23.3021 80.9103 23.3021C80.7399 23.3021 80.6558 23.1533 80.6558 22.8556C80.6558 22.5903 80.7399 22.4479 80.9125 22.4263C81.6481 22.3422 82.1291 22.1351 82.3578 21.805C82.5865 21.4771 82.7008 20.7847 82.7008 19.7341V14.4144C82.7008 13.2258 82.4657 12.3543 81.9975 11.8021C81.5294 11.2498 80.8046 10.9737 79.8252 10.9737C79.2083 10.9737 78.6625 11.0902 78.1879 11.3232C77.7133 11.5562 77.2064 11.9703 76.6628 12.5657V19.7341C76.6628 20.7847 76.7771 21.475 77.0058 21.805C77.2344 22.1351 77.7176 22.3422 78.4511 22.4263C78.6215 22.4479 78.7056 22.5903 78.7056 22.8556C78.7056 23.1533 78.6215 23.3021 78.4511 23.3021C78.0175 23.3021 77.4868 23.2698 76.8612 23.2072C76.1731 23.1425 75.5691 23.1123 75.0492 23.1123C74.5293 23.1123 73.9145 23.1447 73.2371 23.2072C72.631 23.2719 72.1111 23.3021 71.6753 23.3021C71.5049 23.3021 71.4208 23.1533 71.4208 22.8556C71.4208 22.5903 71.5049 22.4479 71.6753 22.4263C72.577 22.3098 73.1595 22.0919 73.4205 21.7748C73.6815 21.4556 73.8109 20.7782 73.8109 19.7384V13.8536C73.8109 13.0058 73.7009 12.4492 73.4852 12.1839C73.2673 11.9186 72.7927 11.7438 72.0593 11.6597C71.8889 11.6597 71.8047 11.5195 71.8047 11.2369C71.8047 10.978 71.8889 10.8464 72.0593 10.8464C73.1077 10.5811 73.9814 10.2812 74.6803 9.94688C75.3792 9.61252 75.8171 9.33855 75.9984 9.12715C76.1041 8.99987 76.2205 8.93515 76.3478 8.93515C76.6434 8.93515 76.7922 9.01928 76.7922 9.1897L76.6649 11.1959C78.1987 9.77214 79.6268 9.06242 80.9491 9.06242C82.9748 9.06242 84.3489 9.83686 85.0737 11.3879C86.683 9.83686 88.2556 9.06242 89.7894 9.06242C91.239 9.06242 92.3694 9.47661 93.1805 10.305C93.9895 11.1333 94.395 12.2486 94.395 13.6508V19.7363C94.395 20.7782 94.5245 21.4556 94.7855 21.7748C95.0465 22.0941 95.6268 22.312 96.5306 22.4285C96.7011 22.45 96.7852 22.5924 96.7852 22.8578L96.7809 22.8556Z" fill="#3979FF"/>
<path id="Vector_9" d="M108.315 23.6538C107.724 23.6538 107.209 23.5071 106.771 23.2159C106.333 22.9246 106.035 22.5277 105.876 22.0294C104.739 23.1986 103.253 23.781 101.417 23.781C100.461 23.781 99.6802 23.4855 99.0761 22.8966C98.47 22.3077 98.168 21.5721 98.168 20.6898C98.168 18.5131 100.748 16.7507 105.91 15.4003L106.005 12.9152V12.8354C106.005 12.0717 105.817 11.4634 105.44 11.0104C105.062 10.5595 104.562 10.333 103.934 10.333C103.306 10.333 102.776 10.484 102.342 10.786C101.906 11.088 101.684 11.4677 101.673 11.925C101.663 12.6046 101.486 13.1352 101.141 13.5171C100.795 13.8989 100.336 14.0909 99.7621 14.0909C99.4213 14.0909 99.1452 13.9895 98.9338 13.7889C98.7202 13.5861 98.6145 13.3164 98.6145 12.9756C98.6145 12.158 99.3587 11.2994 100.845 10.402C102.331 9.50465 103.712 9.05595 104.987 9.05595C106.135 9.05595 107.062 9.39679 107.774 10.0763C108.486 10.7558 108.842 11.6683 108.842 12.816V13.008L108.602 20.2087V20.3209C108.602 21.4362 108.963 21.9927 109.685 21.9927C110.037 21.9927 110.445 21.7813 110.913 21.3563L111.025 21.324C111.109 21.324 111.189 21.3801 111.264 21.4922C111.338 21.6044 111.377 21.7231 111.377 21.8503C111.377 22.1588 111.055 22.5363 110.412 22.9807C109.769 23.4273 109.073 23.6494 108.32 23.6494L108.315 23.6538ZM105.878 16.4681C102.787 17.1714 101.242 18.3319 101.242 19.9498C101.242 21.462 101.824 22.2192 102.987 22.2192C103.548 22.2192 104.1 22.079 104.646 21.7964C105.192 21.5138 105.559 21.1665 105.748 20.7502L105.876 16.4703L105.878 16.4681Z" fill="#3979FF"/>
<path id="Vector_10" d="M122.156 10.6242C122.156 11.1981 122.018 11.485 121.742 11.485L116.994 11.3577V19.0028C116.994 21.0004 117.706 21.997 119.127 21.997C120.01 21.997 120.81 21.7899 121.533 21.3758C121.617 21.3758 121.694 21.4318 121.763 21.5419C121.833 21.654 121.867 21.7727 121.867 21.9C121.867 22.1653 121.472 22.5234 120.683 22.9742C119.893 23.4251 119.007 23.6516 118.021 23.6516C116.813 23.6516 115.848 23.2827 115.128 22.545C114.407 21.8072 114.047 20.8321 114.047 19.6219V19.4774L114.112 11.7352C114.112 11.4375 113.985 11.2887 113.73 11.2887H112.52C112.287 11.2887 112.17 11.1528 112.17 10.8809C112.17 10.6717 112.265 10.5164 112.455 10.4107C113.926 9.537 115.208 8.30524 116.297 6.71538C116.414 6.54496 116.562 6.45867 116.742 6.45867C117.037 6.45867 117.186 6.54281 117.186 6.71323L117.059 9.75489H121.742C122.018 9.75489 122.156 10.0418 122.156 10.6156V10.6242Z" fill="#3979FF"/>
<path id="Vector_11" d="M133.911 10.6242C133.911 11.1981 133.773 11.485 133.497 11.485L128.749 11.3577V19.0028C128.749 21.0004 129.46 21.997 130.882 21.997C131.764 21.997 132.565 21.7899 133.287 21.3758C133.371 21.3758 133.449 21.4318 133.518 21.5419C133.587 21.654 133.622 21.7727 133.622 21.9C133.622 22.1653 133.227 22.5234 132.437 22.9742C131.648 23.4251 130.761 23.6516 129.775 23.6516C128.567 23.6516 127.603 23.2827 126.883 22.545C126.162 21.8072 125.802 20.8321 125.802 19.6219V19.4774L125.867 11.7352C125.867 11.4375 125.739 11.2887 125.485 11.2887H124.274C124.042 11.2887 123.925 11.1528 123.925 10.8809C123.925 10.6717 124.02 10.5164 124.21 10.4107C125.681 9.537 126.962 8.30524 128.052 6.71538C128.168 6.54496 128.317 6.45867 128.496 6.45867C128.792 6.45867 128.941 6.54281 128.941 6.71323L128.813 9.75489H133.497C133.773 9.75489 133.911 10.0418 133.911 10.6156V10.6242Z" fill="#3979FF"/>
<path id="Vector_12" d="M146.526 10.6544C146.526 11.0794 146.397 11.4397 146.136 11.7374C145.875 12.0351 145.56 12.1839 145.189 12.1839C144.72 12.1839 144.259 12.0307 143.804 11.7223C143.443 11.4785 143.128 11.3555 142.863 11.3555C142.173 11.3555 141.461 11.7589 140.73 12.5657V19.7341C140.73 20.6574 140.889 21.3024 141.206 21.6691C141.526 22.0359 142.205 22.2883 143.245 22.4263C143.415 22.4479 143.5 22.5903 143.5 22.8556C143.5 23.1533 143.415 23.3021 143.245 23.3021C142.809 23.3021 142.194 23.2698 141.396 23.2072C140.516 23.1425 139.819 23.1123 139.302 23.1123C138.784 23.1123 138.135 23.1447 137.382 23.2072C136.702 23.2719 136.143 23.3021 135.71 23.3021C135.539 23.3021 135.455 23.1533 135.455 22.8556C135.455 22.5903 135.539 22.4479 135.71 22.4263C136.633 22.3098 137.226 22.0919 137.485 21.7748C137.746 21.4556 137.876 20.7782 137.876 19.7384V13.8536C137.876 13.0058 137.766 12.4492 137.55 12.1839C137.332 11.9186 136.847 11.7438 136.092 11.6597C135.921 11.6597 135.837 11.5195 135.837 11.2369C135.837 10.978 135.921 10.8464 136.092 10.8464C137.142 10.5811 138.009 10.2856 138.691 9.96198C139.373 9.6384 139.819 9.36012 140.031 9.12499C140.158 8.99771 140.283 8.93299 140.41 8.93299C140.706 8.93299 140.855 9.01712 140.855 9.18754L140.728 11.1937C141.577 10.4085 142.307 9.85627 142.917 9.53701C143.528 9.21774 144.136 9.06026 144.742 9.06026C145.23 9.06026 145.65 9.2199 146 9.53701C146.349 9.85627 146.526 10.2273 146.526 10.6523V10.6544Z" fill="#3979FF"/>
<path id="Vector_13" d="M42.3502 6.87286C43.357 6.87286 44.1731 6.05675 44.1731 5.05002C44.1731 4.04329 43.357 3.22718 42.3502 3.22718C41.3435 3.22718 40.5274 4.04329 40.5274 5.05002C40.5274 6.05675 41.3435 6.87286 42.3502 6.87286Z" fill="#3979FF"/>
</g>
<g id="Right Quote">
<g id="Right Quote_2">
<path id="Vector_14" d="M150.409 7.21801V5.1773H152.467V7.94715C152.458 8.05717 152.392 8.73021 151.794 9.20048C151.192 9.67291 150.517 9.57369 150.409 9.55643V8.76042C150.485 8.7561 150.959 8.71943 151.281 8.30956C151.662 7.82419 151.488 7.24606 151.473 7.1986C151.186 7.20508 150.696 7.21154 150.409 7.21801Z" fill="#3979FF"/>
<path id="Vector_15" d="M153.071 7.21801V5.1773H155.129V7.94715C155.12 8.05717 155.053 8.73021 154.456 9.20048C153.854 9.67291 153.179 9.57369 153.071 9.55643V8.76042C153.147 8.7561 153.621 8.71943 153.943 8.30956C154.324 7.82419 154.15 7.24606 154.135 7.1986C153.848 7.20508 153.358 7.21154 153.071 7.21801Z" fill="#3979FF"/>
</g>
</g>
</g>
</g>
</g>
</g>
</svg>
